<?xml version="1.0" standalone="no"?>
<!DOCTYPE svg PUBLIC "-//W3C//DTD SVG 20010904//EN"
 "http://www.w3.org/TR/2001/REC-SVG-20010904/DTD/svg10.dtd">
<svg version="1.0" xmlns="http://www.w3.org/2000/svg"
 width="512.000000pt" height="512.000000pt" viewBox="0 0 512.000000 512.000000"
 preserveAspectRatio="xMidYMid meet">

<g transform="translate(0.000000,512.000000) scale(0.100000,-0.100000)"
fill="#000000" stroke="none">
<path d="M3163 4786 c-108 -35 -214 -132 -255 -234 l-23 -57 -3 -646 -3 -645
-71 35 c-67 34 -78 36 -168 36 -91 0 -100 -2 -172 -37 -70 -35 -138 -93 -165
-143 -10 -17 -13 -16 -49 13 -22 17 -66 44 -99 59 -52 24 -72 28 -156 28 -89
0 -100 -2 -167 -36 l-72 -35 0 501 c0 543 -2 569 -55 660 -36 60 -116 132
-183 163 -50 24 -69 27 -162 27 -99 0 -110 -2 -172 -33 -84 -41 -167 -128
-200 -209 l-23 -58 0 -1535 0 -1535 23 -88 c107 -423 406 -722 829 -829 86
-23 98 -23 678 -23 l590 0 100 28 c120 33 276 108 366 176 36 27 97 83 135
123 71 76 422 574 467 663 64 128 91 298 68 431 -17 99 -196 706 -225 763 -34
65 -132 154 -203 183 l-58 23 -667 3 -668 3 0 176 c0 213 7 240 75 308 101
102 229 102 330 0 64 -63 75 -100 75 -244 0 -105 1 -113 25 -136 32 -33 78
-33 110 0 l25 24 0 878 c1 688 4 886 14 914 21 58 64 107 122 135 110 54 244
15 309 -90 l30 -49 5 -895 5 -894 28 -24 c37 -32 62 -30 98 5 l29 29 0 874 c0
949 1 937 -55 1033 -36 61 -116 132 -183 163 -69 32 -209 41 -279 18z m-1677
-502 c30 -18 60 -48 79 -78 l30 -49 5 -966 5 -966 32 -67 c44 -93 100 -151
191 -196 72 -35 81 -37 171 -37 87 0 102 3 163 32 37 17 90 53 118 79 27 26
50 42 50 36 0 -19 119 -139 170 -172 93 -60 172 -80 363 -91 94 -6 179 -13
187 -16 8 -2 -10 -13 -40 -24 -206 -71 -392 -216 -531 -412 -72 -100 -169
-302 -169 -349 0 -48 28 -78 73 -78 47 0 63 16 97 99 104 253 287 456 502 556
84 39 191 70 272 80 40 5 63 14 81 32 23 23 25 33 25 110 0 76 -2 86 -25 108
-13 14 -34 25 -47 25 -13 0 -150 9 -305 19 -274 18 -284 20 -345 48 -134 64
-222 185 -235 326 l-6 68 659 -3 c658 -3 659 -3 700 -25 45 -24 90 -72 106
-112 39 -103 200 -687 204 -746 7 -82 -13 -190 -49 -269 -38 -83 -384 -573
-461 -655 -112 -116 -229 -187 -393 -238 l-88 -28 -570 0 -570 0 -95 26 c-393
109 -652 402 -710 804 -6 44 -10 606 -9 1520 0 1186 2 1457 13 1488 21 58 61
103 118 132 74 37 164 33 234 -11z m588 -1256 c55 -16 138 -99 154 -154 17
-57 17 -571 0 -628 -26 -86 -136 -166 -228 -166 -92 0 -202 80 -228 166 -17
57 -17 571 0 628 15 51 99 137 148 153 48 15 105 15 154 1z"/>
</g>
</svg>
